<svg width="108" height="128" viewBox="0 0 108 128" fill="none" xmlns="http://www.w3.org/2000/svg">
<g filter="url(#filter0_d)">
<path fill-rule="evenodd" clip-rule="evenodd" d="M53.403 73.9136H63.8162L84.2357 94.1019L79.1027 98.4857L75.3079 104.307L49.7883 78.8997H23.7356V73.9136H53.403L53.403 73.9136Z" fill="#5CDFE5"/>
<path fill-rule="evenodd" clip-rule="evenodd" d="M60.7147 52.4109H23.7356V47.4248H50.0524L74.4749 23.455L78.9085 28.8172L84.8441 32.2226L64.2192 52.4109H60.7147V52.4109Z" fill="#5CDFE5"/>
<path d="M26.864 22.7622C26.864 28.1155 22.5243 32.4552 17.171 32.4552C11.8176 32.4552 7.47791 28.1155 7.47791 22.7622C7.47791 17.4088 11.8176 13.0691 17.171 13.0691C22.5243 13.0691 26.864 17.4088 26.864 22.7622ZM10.5704 22.7622C10.5704 26.4076 13.5256 29.3627 17.171 29.3627C20.8164 29.3627 23.7716 26.4076 23.7716 22.7622C23.7716 19.1168 20.8164 16.1616 17.171 16.1616C13.5256 16.1616 10.5704 19.1168 10.5704 22.7622Z" fill="#5CDFE5"/>
<path d="M25.8109 35.2327C28.4113 33.431 30.3835 30.8615 31.4515 27.8837C32.5195 24.9058 32.6298 21.6686 31.7671 18.6249C30.9044 15.5812 29.1117 12.8834 26.64 10.9089C24.1683 8.93432 21.1411 7.78187 17.9821 7.61276C14.823 7.44364 11.6901 8.26632 9.0217 9.96568C6.35329 11.665 4.28288 14.1561 3.10014 17.0903C1.9174 20.0244 1.6815 23.2549 2.42546 26.3298C3.16941 29.4047 4.856 32.17 7.24924 34.239L8.89428 32.3361C6.89784 30.6102 5.49089 28.3033 4.87028 25.7383C4.24967 23.1732 4.44646 20.4783 5.4331 18.0306C6.41974 15.583 8.14688 13.5049 10.3729 12.0873C12.5988 10.6697 15.2123 9.98345 17.8476 10.1245C20.4829 10.2656 23.0081 11.227 25.0701 12.8741C27.132 14.5213 28.6274 16.7718 29.3471 19.3109C30.0668 21.8499 29.9747 24.5504 29.0838 27.0345C28.1929 29.5186 26.5477 31.6621 24.3784 33.1651L25.8109 35.2327Z" fill="#5CDFE5"/>
<path d="M91.0896 30.3092C87.3043 34.0945 81.1669 34.0945 77.3816 30.3092C73.5962 26.5238 73.5962 20.3865 77.3816 16.6011C81.1669 12.8157 87.3043 12.8157 91.0896 16.6011C94.875 20.3865 94.875 26.5238 91.0896 30.3092ZM79.5683 18.7878C76.9906 21.3655 76.9906 25.5448 79.5683 28.1225C82.146 30.7001 86.3252 30.7001 88.9029 28.1225C91.4806 25.5448 91.4806 21.3655 88.9029 18.7878C86.3252 16.2101 82.146 16.2101 79.5683 18.7878Z" fill="#5CDFE5"/>
<path d="M81.5269 38.3824C84.6396 38.9472 87.8511 38.5249 90.7119 37.1744C93.5728 35.8239 95.9399 33.6129 97.482 30.8506C99.0242 28.0884 99.6643 24.9131 99.3127 21.7692C98.9611 18.6252 97.6355 15.6697 95.5213 13.3164C93.4071 10.963 90.6101 9.32941 87.5216 8.6442C84.4331 7.95898 81.2077 8.2564 78.2966 9.49485C75.3855 10.7333 72.9344 12.8508 71.2862 15.5511C69.638 18.2514 68.8751 21.3994 69.1044 24.5547L71.6132 24.3724C71.4219 21.7403 72.0582 19.1142 73.4332 16.8616C74.8081 14.609 76.8528 12.8426 79.2813 11.8095C81.7097 10.7764 84.4004 10.5282 86.9768 11.0999C89.5532 11.6715 91.8864 13.0342 93.6501 14.9974C95.4138 16.9606 96.5196 19.426 96.8129 22.0487C97.1062 24.6714 96.5722 27.3202 95.2858 29.6244C93.9993 31.9287 92.0247 33.7732 89.6381 34.8997C87.2516 36.0263 84.5726 36.3787 81.976 35.9075L81.5269 38.3824Z" fill="#5CDFE5"/>
<path d="M77.3816 110.563C73.5963 106.777 73.5963 100.64 77.3816 96.8545C81.167 93.0691 87.3043 93.0691 91.0897 96.8545C94.8751 100.64 94.8751 106.777 91.0897 110.563C87.3043 114.348 81.167 114.348 77.3816 110.563ZM88.903 99.0412C86.3253 96.4635 82.146 96.4635 79.5683 99.0412C76.9907 101.619 76.9907 105.798 79.5683 108.376C82.146 110.954 86.3253 110.954 88.903 108.376C91.4807 105.798 91.4807 101.619 88.903 99.0412Z" fill="#5CDFE5"/>
<path d="M69.3083 101C68.7434 104.113 69.1658 107.324 70.5163 110.185C71.8668 113.046 74.0778 115.413 76.8401 116.955C79.6023 118.497 82.7775 119.137 85.9215 118.786C89.0655 118.434 92.0209 117.108 94.3743 114.994C96.7277 112.88 98.3613 110.083 99.0465 106.994C99.7317 103.906 99.4343 100.681 98.1958 97.7695C96.9574 94.8584 94.8399 92.4073 92.1395 90.7591C89.4392 89.1109 86.2912 88.348 83.136 88.5773L83.3183 91.0861C85.9504 90.8948 88.5765 91.5311 90.8291 92.9061C93.0817 94.281 94.8481 96.3257 95.8812 98.7542C96.9143 101.183 97.1624 103.873 96.5908 106.45C96.0192 109.026 94.6565 111.359 92.6933 113.123C90.7301 114.887 88.2647 115.993 85.642 116.286C83.0193 116.579 80.3705 116.045 78.0662 114.759C75.762 113.472 73.9175 111.498 72.7909 109.111C71.6644 106.725 71.312 104.046 71.7832 101.449L69.3083 101Z" fill="#5CDFE5"/>
<rect x="10.6066" y="29.3726" width="13.1291" height="64.8417" fill="#5CDFE5"/>
<path d="M26.864 101.605C26.864 96.2519 22.5243 91.9122 17.171 91.9122C11.8176 91.9122 7.47791 96.2519 7.47791 101.605C7.47791 106.959 11.8176 111.298 17.171 111.298C22.5243 111.298 26.864 106.959 26.864 101.605ZM10.5704 101.605C10.5704 97.9599 13.5256 95.0047 17.171 95.0047C20.8164 95.0047 23.7716 97.9599 23.7716 101.605C23.7716 105.251 20.8164 108.206 17.171 108.206C13.5256 108.206 10.5704 105.251 10.5704 101.605Z" fill="#5CDFE5"/>
<path d="M25.8109 89.1348C28.4113 90.9364 30.3835 93.5059 31.4515 96.4838C32.5195 99.4616 32.6298 102.699 31.7671 105.743C30.9044 108.786 29.1117 111.484 26.64 113.459C24.1683 115.433 21.1411 116.586 17.9821 116.755C14.823 116.924 11.6901 116.101 9.0217 114.402C6.35329 112.702 4.28288 110.211 3.10014 107.277C1.9174 104.343 1.6815 101.112 2.42546 98.0376C3.16941 94.9628 4.856 92.1974 7.24924 90.1284L8.89428 92.0313C6.89784 93.7572 5.49089 96.0641 4.87028 98.6292C4.24967 101.194 4.44646 103.889 5.4331 106.337C6.41974 108.784 8.14688 110.862 10.3729 112.28C12.5988 113.698 15.2123 114.384 17.8476 114.243C20.4829 114.102 23.0081 113.14 25.0701 111.493C27.132 109.846 28.6274 107.596 29.3471 105.057C30.0668 102.518 29.9747 99.817 29.0838 97.3329C28.1929 94.8488 26.5477 92.7053 24.3784 91.2024L25.8109 89.1348Z" fill="#5CDFE5"/>
<path d="M17.1711 56.2229H59.7836L54.9007 63.1623L59.7836 70.1018H17.1711V56.2229Z" fill="#5CDFE5"/>
</g>
<defs>
<filter id="filter0_d" x="0" y="0" width="107.691" height="127.164" filterUnits="userSpaceOnUse" color-interpolation-filters="sRGB">
<feFlood flood-opacity="0" result="BackgroundImageFix"/>
<feColorMatrix in="SourceAlpha" type="matrix" values="0 0 0 0 0 0 0 0 0 0 0 0 0 0 0 0 0 0 127 0"/>
<feOffset/>
<feGaussianBlur stdDeviation="1"/>
<feColorMatrix type="matrix" values="0 0 0 0 0 0 0 0 0 0 0 0 0 0 0 0 0 0 0.75 0"/>
<feBlend mode="normal" in2="BackgroundImageFix" result="effect1_dropShadow"/>
<feBlend mode="normal" in="SourceGraphic" in2="effect1_dropShadow" result="shape"/>
</filter>
</defs>
</svg>
